Coordinates
version=1
nRows=8
nColumns=40
inDegrees=yes

Units are S.I. units (second, meters, Newtons, ...)
Angles are in degrees.

endheader
time	pelvis_tilt	pelvis_list	pelvis_rotation	pelvis_tx	pelvis_ty	pelvis_tz	hip_flexion_r	hip_adduction_r	hip_rotation_r	knee_angle_r	knee_angle_r_beta	ankle_angle_r	subtalar_angle_r	mtp_angle_r	hip_flexion_l	hip_adduction_l	hip_rotation_l	knee_angle_l	knee_angle_l_beta	ankle_angle_l	subtalar_angle_l	mtp_angle_l	lumbar_extension	lumbar_bending	lumbar_rotation	arm_flex_r	arm_add_r	arm_rot_r	elbow_flex_r	pro_sup_r	wrist_flex_r	wrist_dev_r	arm_flex_l	arm_add_l	arm_rot_l	elbow_flex_l	pro_sup_l	wrist_flex_l	wrist_dev_l
     50.80028571	     -3.40770506	     -5.04143861	      0.90908703	      1.17992274	      0.91793846	      0.40320179	     27.09841505	     -6.51592540	     -1.15852779	     66.95509390	     66.95509390	      7.01719674	    -15.68437522	      3.04882619	     21.13211972	     -4.17594128	     -4.62586640	     32.58046646	     32.58046646	     18.07149989	    -17.49002295	      5.98158965	    -10.51180374	      6.14010201	      3.08609502	     18.38024647	    -11.48595312	     -7.38897982	     36.31481940	     46.35684482	      0.00000000	      0.00000000	     19.74432797	    -14.06209302	     19.55031312	     33.84180189	     44.99420258	      0.00000000	      0.00000000
     50.82057143	     -3.06230973	     -5.11986696	      0.47174602	      1.17972779	      0.91675564	      0.40172666	     28.40168786	     -6.45485172	     -0.50956676	     67.63454022	     67.63454022	      6.94442510	    -15.73222544	      3.02204986	     20.85065485	     -4.25000220	     -4.76803941	     33.42448922	     33.42448922	     18.69861550	    -17.83222990	      6.05378040	    -10.83673181	      6.55363208	      3.10946028	     14.73326033	    -11.88999758	     -7.57609395	     33.97616273	     46.43049712	      0.00000000	      0.00000000	     21.50254778	    -14.07404376	     19.17769718	     35.05563700	     45.07959885	      0.00000000	      0.00000000
     50.84085714	     -2.78146091	     -5.17418748	      0.03195415	      1.17941860	      0.91608102	      0.40049366	     29.46307433	     -6.42776192	     -0.06507454	     67.04893050	     67.04893050	      6.67266519	    -15.79467634	      1.68008499	     20.52687344	     -4.26211792	     -4.84205971	     34.08686557	     34.08686557	     19.89969276	    -17.96679976	      7.69044499	    -11.17264047	      6.87002944	      2.68122472	     12.06155804	    -11.78332505	     -8.74200477	     30.02745613	     46.62365077	      0.00000000	      0.00000000	     23.06712069	    -14.24681741	     18.20121651	     36.33577765	     45.27575852	      0.00000000	      0.00000000
     50.86114286	     -2.64321509	     -5.28020760	     -0.46494123	      1.17903409	      0.91577241	      0.39970044	     30.40134785	     -6.31510988	      0.17328603	     65.37817834	     65.37817834	      6.90567302	    -15.43112815	      1.07665654	     20.15383744	     -4.40535592	     -5.12305990	     34.32789667	     34.32789667	     20.29014604	    -18.13391228	      7.67007173	    -11.43438890	      7.27027824	      2.70826658	      8.55886700	    -12.18492008	     -8.85518187	     28.11597354	     46.68062106	      0.00000000	      0.00000000	     24.83440711	    -14.31703173	     17.69558445	     37.65372261	     45.37178278	      0.00000000	      0.00000000
     50.88142857	     -2.59646161	     -5.38955836	     -1.00545632	      1.17858574	      0.91605938	      0.39933260	     31.05319419	     -6.15374658	      0.20790606	     62.52527634	     62.52527634	      7.10337196	    -14.78540740	      0.00696956	     19.69745219	     -4.57567224	     -5.47860885	     34.23361069	     34.23361069	     20.58668051	    -18.23022707	      7.81365426	    -11.64455263	      7.62353988	      2.70200662	      5.25495199	    -12.50291637	     -8.96880747	     26.30268957	     46.73711821	      0.00000000	      0.00000000	     26.51837031	    -14.44968725	     17.07385679	     39.06600681	     45.47826592	      0.00000000	      0.00000000
     50.90171429	     -2.71890326	     -5.43256429	     -1.60838055	      1.17803962	      0.91668569	      0.39932182	     31.27609898	     -6.00634303	      0.05101301	     58.08689971	     58.08689971	      4.82632561	    -15.31768567	     -8.07809773	     19.28858549	     -4.69341291	     -5.92125886	     33.89147513	     33.89147513	     20.87793213	    -18.23197432	      8.31800277	    -11.71126045	      7.90611758	      2.23034923	      2.58028948	    -12.51821601	     -9.96817759	     24.25222002	     46.88002771	      0.00000000	      0.00000000	     27.52098096	    -14.76896977	     14.23408011	     41.39605315	     45.86673220	      0.00000000	      0.00000000
     50.92200000	     -2.90046178	     -5.48922042	     -2.23486935	      1.17747416	      0.91781397	      0.39987066	     31.36218414	     -5.70565732	     -0.23673822	     53.32058425	     53.32058425	      5.09476116	    -13.63206110	     -8.47261154	     18.77021497	     -4.86870835	     -6.45994875	     33.21841477	     33.21841477	     20.86423821	    -18.21815529	      8.36832143	    -11.73570952	      8.13454542	      2.24515720	     -0.50909467	    -12.72156949	    -10.05436116	     23.04125103	     46.91178484	      0.00000000	      0.00000000	     29.16216638	    -15.08748229	     13.61639216	     42.87025037	     45.96379995	      0.00000000	      0.00000000
     50.94228571	     -3.12873972	     -5.53700491	     -2.86793351	      1.17694491	      0.91926474	      0.40086823	     31.05893724	     -5.32217257	     -0.70440974	     47.84543595	     47.84543595	      5.07066278	    -11.38302835	     -8.77057724	     18.18593316	     -5.05185863	     -7.02713850	     32.33208122	     32.33208122	     20.74338952	    -18.16368522	      8.40586147	    -11.73031296	      8.31433572	      2.17623423	     -3.40868568	    -12.82229756	    -10.17764228	     22.16951470	     46.93370061	      0.00000000	      0.00000000	     30.71663458	    -15.56296648	     12.84902515	     44.47060198	     46.07547892	      0.00000000	      0.00000000
